<svg xmlns="http://www.w3.org/2000/svg" xmlns:xlink="http://www.w3.org/1999/xlink" viewBox="0,0,256,256" width="50px" height="50px" fill-rule="nonzero"><g fill="#cccccc" fill-rule="nonzero" stroke="none" stroke-width="1" stroke-linecap="butt" stroke-linejoin="miter" stroke-miterlimit="10" stroke-dasharray="" stroke-dashoffset="0" font-family="none" font-weight="none" font-size="none" text-anchor="none" style="mix-blend-mode: normal"><g transform="scale(5.12,5.12)"><path d="M21,2c-1.64545,0 -3,1.35455 -3,3v2h-7.8457c-0.05615,-0.00939 -0.113,-0.01396 -0.16992,-0.01367c-0.04844,0.00105 -0.09675,0.00562 -0.14453,0.01367h-1.83984c-0.36064,-0.0051 -0.69608,0.18438 -0.87789,0.49587c-0.18181,0.3115 -0.18181,0.69676 0,1.00825c0.18181,0.3115 0.51725,0.50097 0.87789,0.49587h1v36c0,1.64545 1.35455,3 3,3h26c1.64545,0 3,-1.35455 3,-3v-36h1c0.36064,0.0051 0.69608,-0.18438 0.87789,-0.49587c0.18181,-0.3115 0.18181,-0.69676 0,-1.00825c-0.18181,-0.3115 -0.51725,-0.50097 -0.87789,-0.49587h-1.83203c-0.10799,-0.01785 -0.21818,-0.01785 -0.32617,0h-7.8418v-2c0,-1.64545 -1.35455,-3 -3,-3zM21,4h8c0.55455,0 1,0.44545 1,1v2h-10v-2c0,-0.55455 0.44545,-1 1,-1zM11,9h7.83203c0.10799,0.01785 0.21818,0.01785 0.32617,0h11.67383c0.10799,0.01785 0.21818,0.01785 0.32617,0h7.8418v36c0,0.55454 -0.44546,1 -1,1h-26c-0.55454,0 -1,-0.44546 -1,-1zM18.98438,13.98633c-0.55152,0.00862 -0.99193,0.46214 -0.98437,1.01367v25c-0.0051,0.36064 0.18438,0.69608 0.49587,0.87789c0.3115,0.18181 0.69676,0.18181 1.00825,0c0.3115,-0.18181 0.50097,-0.51725 0.49587,-0.87789v-25c0.0037,-0.2703 -0.10218,-0.53059 -0.29351,-0.72155c-0.19133,-0.19097 -0.45182,-0.29634 -0.72212,-0.29212zM24.98438,13.98633c-0.55152,0.00862 -0.99193,0.46214 -0.98437,1.01367v25c-0.0051,0.36064 0.18438,0.69608 0.49587,0.87789c0.3115,0.18181 0.69676,0.18181 1.00825,0c0.3115,-0.18181 0.50097,-0.51725 0.49587,-0.87789v-25c0.0037,-0.2703 -0.10218,-0.53059 -0.29351,-0.72155c-0.19133,-0.19097 -0.45182,-0.29634 -0.72212,-0.29212zM30.98438,13.98633c-0.55152,0.00862 -0.99193,0.46214 -0.98437,1.01367v25c-0.0051,0.36064 0.18438,0.69608 0.49587,0.87789c0.3115,0.18181 0.69676,0.18181 1.00825,0c0.3115,-0.18181 0.50097,-0.51725 0.49587,-0.87789v-25c0.0037,-0.2703 -0.10218,-0.53059 -0.29351,-0.72155c-0.19133,-0.19097 -0.45182,-0.29634 -0.72212,-0.29212z"></path></g></g></svg>